<?xml version="1.0" encoding="iso-8859-1"?>
<!-- Generator: Adobe Illustrator 19.0.0, SVG Export Plug-In . SVG Version: 6.00 Build 0)  -->
<svg version="1.1" id="Capa_1" xmlns="http://www.w3.org/2000/svg" xmlns:xlink="http://www.w3.org/1999/xlink" x="0px" y="0px"
	 viewBox="0 0 58 58" style="enable-background:new 0 0 58 58;" xml:space="preserve">
<path style="fill:#88C057;" d="M29,0c0,0-6.667,8-22,8v19.085c0,9.966,4.328,19.577,12.164,25.735C21.937,55,25.208,56.875,29,58
	c3.792-1.125,7.062-3,9.836-5.18C46.672,46.662,51,37.051,51,27.085V8C35.667,8,29,0,29,0z"/>
<path style="fill:#7CAA50;" d="M7,8v19.085c0,9.966,4.328,19.577,12.164,25.735C21.938,55,25.208,56.875,29,58V0C29,0,22.333,8,7,8z
	"/>
<path style="fill:#ECF0F1;" d="M41,26h-2.573c-1.31,0-1.856-1.083-0.93-2.009l1.786-1.786c0.348-0.348,0.348-0.911,0-1.259
	l-2.276-2.276c-0.348-0.348-0.911-0.348-1.259,0l-1.786,1.786C33.035,21.381,31,20.725,31,19.416V16.89
	c0-0.492-0.399-0.89-0.89-0.89H27.89C27.399,16,27,16.399,27,16.89v2.526c0,1.309-2.131,1.965-3.057,1.039l-1.786-1.786
	c-0.348-0.348-0.911-0.348-1.259,0l-2.276,2.276c-0.348,0.348-0.348,0.911,0,1.259l1.786,1.786c0.926,0.926,0.38,2.009-0.93,2.009
	H17c-0.492,0-1,0.899-1,1.39V30c0,0.492,0.508,1,1,1h2.478c1.309,0,1.855,2.083,0.93,3.009l-1.786,1.786
	c-0.348,0.348-0.348,0.911,0,1.259l2.276,2.276c0.348,0.348,0.911,0.348,1.259,0l1.786-1.786C24.869,36.619,27,37.691,27,39v2
	c0,0.492-0.149,1,0.343,1h3.219C31.054,42,31,41.492,31,41v-2c0-1.309,2.035-2.381,2.961-1.455l1.786,1.786
	c0.348,0.348,0.911,0.348,1.259,0l2.276-2.276c0.348-0.348,0.348-0.911,0-1.259l-1.786-1.786C36.571,33.083,37.117,32,38.427,32H41
	c0.492,0,1-0.899,1-1.39V27.39C42,26.899,41.492,26,41,26z M28.952,33c-2.209,0-4-1.791-4-4c0-2.209,1.791-4,4-4
	c2.209,0,4,1.791,4,4C32.952,31.209,31.161,33,28.952,33z"/>
<path style="fill:#DCDFE0;" d="M29,32.995c-0.016,0-0.031,0.005-0.048,0.005c-2.209,0-4-1.791-4-4c0-2.209,1.791-4,4-4
	c0.016,0,0.031,0.005,0.048,0.005V16h-1.11C27.399,16,27,16.399,27,16.89v2.526c0,1.309-2.131,1.965-3.057,1.039l-1.786-1.786
	c-0.348-0.348-0.911-0.348-1.259,0l-2.276,2.276c-0.348,0.348-0.348,0.911,0,1.259l1.786,1.786c0.926,0.926,0.38,2.009-0.93,2.009
	H17c-0.492,0-1,0.899-1,1.39V30c0,0.492,0.508,1,1,1h2.478c1.309,0,1.855,2.083,0.93,3.009l-1.786,1.786
	c-0.348,0.348-0.348,0.911,0,1.259l2.276,2.276c0.348,0.348,0.911,0.348,1.259,0l1.786-1.786C24.869,36.619,27,37.691,27,39v2
	c0,0.492-0.149,1,0.343,1H29V32.995z"/>
<g>
</g>
<g>
</g>
<g>
</g>
<g>
</g>
<g>
</g>
<g>
</g>
<g>
</g>
<g>
</g>
<g>
</g>
<g>
</g>
<g>
</g>
<g>
</g>
<g>
</g>
<g>
</g>
<g>
</g>
</svg>
